<svg xmlns="http://www.w3.org/2000/svg" width="1280" height="720" viewBox="0 0 1280 720"><rect width="1280" height="720" fill="#f5f7fa"/><g font-family="PingFang SC,sans-serif" fill="#24344b"><text x="64" y="70" font-size="32" font-weight="600">AgentOS · 一个问题，一条独立会话</text><text x="64" y="111" font-size="19">卡片、Codex 会话、历史消息和任务证据按问题隔离</text><rect x="64" y="174" width="195" height="105" rx="12" fill="#e9f2ff" stroke="#b8c8da"/><text x="82" y="214" font-size="21" font-weight="600">提问人 A</text><text x="82" y="249" font-size="17">问题 A</text><rect x="310" y="174" width="230" height="105" rx="12" fill="#e9f2ff" stroke="#b8c8da"/><text x="328" y="214" font-size="21" font-weight="600">问题 A 主卡片</text><text x="328" y="249" font-size="17">补充 → 沿用本卡</text><rect x="595" y="174" width="255" height="105" rx="12" fill="#e9f2ff" stroke="#b8c8da"/><text x="613" y="214" font-size="21" font-weight="600">独立 Codex 会话</text><text x="613" y="249" font-size="17">只读入本问题历史</text><rect x="905" y="174" width="305" height="105" rx="12" fill="#e9f2ff" stroke="#b8c8da"/><text x="923" y="214" font-size="21" font-weight="600">本问题的任务与结果</text><text x="923" y="249" font-size="17">只更新对应卡片</text><path d="M259 226 H300 l-8 -5 m8 5 l-8 5" fill="none" stroke="#637b95" stroke-width="2"/><path d="M540 226 H585 l-8 -5 m8 5 l-8 5" fill="none" stroke="#637b95" stroke-width="2"/><path d="M850 226 H895 l-8 -5 m8 5 l-8 5" fill="none" stroke="#637b95" stroke-width="2"/><rect x="64" y="329" width="195" height="105" rx="12" fill="#eaf6ef" stroke="#b8c8da"/><text x="82" y="369" font-size="21" font-weight="600">提问人 B</text><text x="82" y="404" font-size="17">问题 B</text><rect x="310" y="329" width="230" height="105" rx="12" fill="#eaf6ef" stroke="#b8c8da"/><text x="328" y="369" font-size="21" font-weight="600">问题 B 主卡片</text><text x="328" y="404" font-size="17">补充 → 沿用本卡</text><rect x="595" y="329" width="255" height="105" rx="12" fill="#eaf6ef" stroke="#b8c8da"/><text x="613" y="369" font-size="21" font-weight="600">独立 Codex 会话</text><text x="613" y="404" font-size="17">只读入本问题历史</text><rect x="905" y="329" width="305" height="105" rx="12" fill="#eaf6ef" stroke="#b8c8da"/><text x="923" y="369" font-size="21" font-weight="600">本问题的任务与结果</text><text x="923" y="404" font-size="17">只更新对应卡片</text><path d="M259 381 H300 l-8 -5 m8 5 l-8 5" fill="none" stroke="#637b95" stroke-width="2"/><path d="M540 381 H585 l-8 -5 m8 5 l-8 5" fill="none" stroke="#637b95" stroke-width="2"/><path d="M850 381 H895 l-8 -5 m8 5 l-8 5" fill="none" stroke="#637b95" stroke-width="2"/><text x="550" y="309" font-size="18" fill="#a2463b">两条问题上下文互不混用</text><rect x="64" y="500" width="1146" height="90" rx="12" fill="#ffffff" stroke="#b8c8da"/><text x="88" y="537" font-size="20">明确追问旧问题：新卡片 / 新会话，只继承该父问题链的历史</text><text x="88" y="570" font-size="17">共享项目配置和团队规范；不自动共享其他问题的消息、附件或任务结果</text><text x="64" y="640" font-size="17">旧群共享会话不再复用；历史卡片与任务保留。并发受理不等于所有 Runner 任务同时执行。</text><text x="64" y="679" font-size="16" fill="#627188">question-v2 · 2026-09-16</text></g></svg>